<svg width="26" height="19" viewBox="0 0 26 19" fill="none" xmlns="http://www.w3.org/2000/svg">
<path d="M13.5108 14.7773C14.3491 14.7773 15.0733 15.2666 15.4141 15.9746C15.5472 16.2512 15.6221 16.5612 15.6221 16.8887C15.6221 18.0546 14.6767 19 13.5108 19C12.345 18.9998 11.4004 18.0545 11.4004 16.8887C11.4005 16.5973 11.4596 16.3199 11.5664 16.0674C11.8869 15.3098 12.6365 14.7775 13.5108 14.7773ZM20.0606 14.7891C20.1869 14.8019 20.31 14.8253 20.4287 14.8594C21.3105 15.1127 21.956 15.9255 21.9561 16.8887C21.9561 18.0545 21.0106 18.9999 19.8448 19C18.7516 19 17.8522 18.1692 17.7442 17.1045L17.7334 16.8887C17.7335 15.8686 18.4571 15.0172 19.419 14.8203C19.4878 14.8062 19.5579 14.7963 19.6289 14.7891L19.8448 14.7773C19.9175 14.7774 19.9897 14.7819 20.0606 14.7891ZM12.667 0C19.6625 0.000175749 25.333 5.67149 25.333 12.667V15.8887C25.333 16.441 24.8853 16.8887 24.333 16.8887H23.7998C23.2475 16.8887 22.8163 16.4284 22.633 15.9074C22.2284 14.7577 21.1329 13.9337 19.8448 13.9336C18.2835 13.9336 17.0045 15.144 16.8961 16.6777C16.8879 16.7939 16.7943 16.8887 16.6778 16.8887V16.8887C16.5613 16.8887 16.4676 16.7939 16.4594 16.6777C16.3511 15.144 15.0721 13.9336 13.5108 13.9336C12.2227 13.9338 11.1272 14.7578 10.7226 15.9074C10.5392 16.4284 10.108 16.8887 9.55578 16.8887H8.58008C8.19265 16.8887 7.84009 16.6649 7.67518 16.3143L7.02705 14.9364C6.71509 14.2731 7.19901 13.5107 7.93195 13.5107H9.59258C9.96029 13.5107 10.152 13.0731 9.90268 12.8028V12.8028C9.82281 12.7162 9.71038 12.667 9.59258 12.667H6.59375C6.20632 12.667 5.85376 12.4432 5.68886 12.0926L5.04072 10.7147C4.72876 10.0515 5.21268 9.28906 5.94562 9.28906H9.43637C9.82578 9.28906 10.0077 8.80687 9.71538 8.54962V8.54962C9.63827 8.48177 9.53908 8.44434 9.43637 8.44434H4.60742C4.22 8.44434 3.86743 8.22055 3.70253 7.86997L3.05439 6.49204C2.74243 5.82881 3.22635 5.06641 3.95929 5.06641H8.70095C9.14987 5.06641 9.28818 4.45834 8.88343 4.26416V4.26416C8.82648 4.23684 8.76412 4.22266 8.70095 4.22266H2.62108C2.23366 4.22266 1.8811 3.99888 1.71619 3.64831L0.67066 1.42566C0.358677 0.762424 0.842598 0 1.57555 0H12.667ZM12.667 7.86621C12.667 8.4185 13.1147 8.86621 13.667 8.86621H20.1113C20.6636 8.86621 21.1216 8.414 21.0138 7.8723C20.5517 5.55027 18.5027 3.79999 16.045 3.7998H13.667C13.1147 3.7998 12.667 4.24752 12.667 4.7998V7.86621Z" fill="#D6D6D6"/>
</svg>
